<svg width="48" height="48" viewBox="0 0 48 48" fill="none" xmlns="http://www.w3.org/2000/svg">
<path fill-rule="evenodd" clip-rule="evenodd" d="M44 24C44 22.3431 42.6569 21 41 21H7C5.34315 21 4 22.3431 4 24C4 25.6569 5.34315 27 7 27H41C42.6569 27 44 25.6569 44 24Z" fill="currentColor"/>
<path fill-rule="evenodd" clip-rule="evenodd" d="M23.1984 8.95864C22.071 7.74451 20.1728 7.67421 18.9586 8.80162L4.95865 21.8016C4.34735 22.3693 4 23.1658 4 24C4 24.8342 4.34735 25.6307 4.95865 26.1984L18.9586 39.1984C20.1728 40.3258 22.071 40.2555 23.1984 39.0414C24.3258 37.8272 24.2555 35.929 23.0414 34.8016L11.4088 24L23.0414 13.1984C24.2555 12.071 24.3258 10.1728 23.1984 8.95864Z" fill="currentColor"/>
</svg>
