<svg width="48" height="48" viewBox="0 0 48 48" fill="none" xmlns="http://www.w3.org/2000/svg">
<path d="M14 16C14 14.8954 14.8954 14 16 14C17.1046 14 18 14.8954 18 16V22C18 23.1046 17.1046 24 16 24C14.8954 24 14 23.1046 14 22V16Z" fill="currentColor"/>
<path d="M14 8C14 6.89543 14.8954 6 16 6C17.1046 6 18 6.89543 18 8V10C18 11.1046 17.1046 12 16 12C14.8954 12 14 11.1046 14 10V8Z" fill="currentColor"/>
<path d="M22 8C22 6.89543 22.8954 6 24 6C25.1046 6 26 6.89543 26 8V10C26 11.1046 25.1046 12 24 12C22.8954 12 22 11.1046 22 10V8Z" fill="currentColor"/>
<path d="M30 8C30 6.89543 30.8954 6 32 6C33.1046 6 34 6.89543 34 8V10C34 11.1046 33.1046 12 32 12C30.8954 12 30 11.1046 30 10V8Z" fill="currentColor"/>
<path fill-rule="evenodd" clip-rule="evenodd" d="M14 20C9.58172 20 6 23.5817 6 28V38C6 40.2091 7.79086 42 10 42H38C40.2091 42 42 40.2091 42 38V28C42 23.5817 38.4183 20 34 20H14ZM38 32C38 30.8954 37.1046 30 36 30H12C10.8954 30 10 30.8954 10 32C10 33.1046 10.8954 34 12 34H36C37.1046 34 38 33.1046 38 32Z" fill="currentColor"/>
<path d="M22 16C22 14.8954 22.8954 14 24 14C25.1046 14 26 14.8954 26 16V22C26 23.1046 25.1046 24 24 24C22.8954 24 22 23.1046 22 22V16Z" fill="currentColor"/>
<path d="M30 16C30 14.8954 30.8954 14 32 14C33.1046 14 34 14.8954 34 16V22C34 23.1046 33.1046 24 32 24C30.8954 24 30 23.1046 30 22V16Z" fill="currentColor"/>
</svg>
