<svg width="48" height="48" viewBox="0 0 48 48" fill="none" xmlns="http://www.w3.org/2000/svg">
<path fill-rule="evenodd" clip-rule="evenodd" d="M14 8C8.47715 8 4 12.4772 4 18V22V34C4 39.5228 8.47715 44 14 44H34C39.5228 44 44 39.5228 44 34V22V18C44 12.4772 39.5228 8 34 8H14ZM40 22V34C40 37.3137 37.3137 40 34 40H14C10.6863 40 8 37.3137 8 34V22H40Z" fill="currentColor"/>
<path fill-rule="evenodd" clip-rule="evenodd" d="M16 4C17.1046 4 18 4.89543 18 6V14C18 15.1046 17.1046 16 16 16C14.8954 16 14 15.1046 14 14V6C14 4.89543 14.8954 4 16 4Z" fill="currentColor"/>
<path fill-rule="evenodd" clip-rule="evenodd" d="M32 4C33.1046 4 34 4.89543 34 6V14C34 15.1046 33.1046 16 32 16C30.8954 16 30 15.1046 30 14V6C30 4.89543 30.8954 4 32 4Z" fill="currentColor"/>
<path d="M18 28C18 29.1046 17.1046 30 16 30C14.8954 30 14 29.1046 14 28C14 26.8954 14.8954 26 16 26C17.1046 26 18 26.8954 18 28Z" fill="currentColor"/>
<path d="M18 34C18 35.1046 17.1046 36 16 36C14.8954 36 14 35.1046 14 34C14 32.8954 14.8954 32 16 32C17.1046 32 18 32.8954 18 34Z" fill="currentColor"/>
<path d="M26 28C26 29.1046 25.1046 30 24 30C22.8954 30 22 29.1046 22 28C22 26.8954 22.8954 26 24 26C25.1046 26 26 26.8954 26 28Z" fill="currentColor"/>
<path d="M26 34C26 35.1046 25.1046 36 24 36C22.8954 36 22 35.1046 22 34C22 32.8954 22.8954 32 24 32C25.1046 32 26 32.8954 26 34Z" fill="currentColor"/>
<path d="M34 28C34 29.1046 33.1046 30 32 30C30.8954 30 30 29.1046 30 28C30 26.8954 30.8954 26 32 26C33.1046 26 34 26.8954 34 28Z" fill="currentColor"/>
<path d="M34 34C34 35.1046 33.1046 36 32 36C30.8954 36 30 35.1046 30 34C30 32.8954 30.8954 32 32 32C33.1046 32 34 32.8954 34 34Z" fill="currentColor"/>
</svg>
