<svg width="48" height="48" viewBox="0 0 48 48" fill="none" xmlns="http://www.w3.org/2000/svg">
<path fill-rule="evenodd" clip-rule="evenodd" d="M20.6718 3.8151C22.6872 2.4715 25.3128 2.4715 27.3282 3.8151L41.3282 13.1484L40.2188 14.8125L41.3282 13.1484C42.9974 14.2612 44 16.1346 44 18.1407V38C44 41.3137 41.3137 44 38 44H10C6.68629 44 4 41.3137 4 38V18.1407C4 16.1346 5.00261 14.2612 6.6718 13.1484L20.6718 3.8151ZM30 30C30 26.6863 27.3137 24 24 24C20.6863 24 18 26.6863 18 30V36C18 37.1046 18.8954 38 20 38H28C29.1046 38 30 37.1046 30 36V30Z" fill="currentColor"/>
</svg>
