<svg width="48" height="48" viewBox="0 0 48 48" fill="none" xmlns="http://www.w3.org/2000/svg">
<path d="M16.0001 26C8.44342 26 5.64428 30.6156 4.6081 34.1217C3.98879 36.2173 5.75395 38 7.93911 38H23.7463C26.0521 38 27.8487 36.0321 27.0534 33.8678C25.778 30.397 22.817 26 16.0001 26Z" fill="currentColor"/>
<path d="M22 17C22 20.866 18.866 24 15 24C11.134 24 8 20.866 8 17C8 13.134 11.134 10 15 10C18.866 10 22 13.134 22 17Z" fill="currentColor"/>
<path d="M40 17C40 20.866 36.866 24 33 24C29.134 24 26 20.866 26 17C26 13.134 29.134 10 33 10C36.866 10 40 13.134 40 17Z" fill="currentColor"/>
<path fill-rule="evenodd" clip-rule="evenodd" d="M26.3583 27.1119C27.8577 26.4237 29.7105 26 32.0001 26C38.817 26 41.778 30.397 43.0534 33.8678C43.8487 36.0321 42.0521 38 39.7463 38H29.3507C30.2632 36.5425 30.5512 34.6887 29.8693 32.8331C29.2147 31.0518 28.1376 28.9359 26.3583 27.1119Z" fill="currentColor"/>
</svg>
