<svg width="48" height="48" viewBox="0 0 48 48" fill="none" xmlns="http://www.w3.org/2000/svg">
<path fill-rule="evenodd" clip-rule="evenodd" d="M35.9091 28.1212C37.8478 25.5938 39 22.4315 39 19C39 10.7157 32.2843 4 24 4C15.7157 4 9 10.7157 9 19C9 22.4315 10.1522 25.5938 12.0909 28.1212L22.4 41.8667C23.2 42.9333 24.8 42.9333 25.6 41.8667L35.9091 28.1212ZM29 19C29 21.7614 26.7614 24 24 24C21.2386 24 19 21.7614 19 19C19 16.2386 21.2386 14 24 14C26.7614 14 29 16.2386 29 19Z" fill="currentColor"/>
</svg>
