<svg width="48" height="48" viewBox="0 0 48 48" fill="none" xmlns="http://www.w3.org/2000/svg">
<path d="M34 24C34 29.5228 29.5228 34 24 34C18.4772 34 14 29.5228 14 24C14 18.4772 18.4772 14 24 14C29.5228 14 34 18.4772 34 24Z" fill="currentColor"/>
<path fill-rule="evenodd" clip-rule="evenodd" d="M24 4C25.1046 4 26 4.89543 26 6L26 9C26 10.1046 25.1046 11 24 11C22.8954 11 22 10.1046 22 9L22 6C22 4.89543 22.8954 4 24 4Z" fill="currentColor"/>
<path fill-rule="evenodd" clip-rule="evenodd" d="M24 37C25.1046 37 26 37.8954 26 39V42C26 43.1046 25.1046 44 24 44C22.8954 44 22 43.1046 22 42V39C22 37.8954 22.8954 37 24 37Z" fill="currentColor"/>
<path fill-rule="evenodd" clip-rule="evenodd" d="M9.85787 38.1421C9.07682 37.3611 9.07682 36.0948 9.85787 35.3137L11.9792 33.1924C12.7602 32.4113 14.0266 32.4113 14.8076 33.1924C15.5887 33.9734 15.5887 35.2398 14.8076 36.0208L12.6863 38.1421C11.9052 38.9232 10.6389 38.9232 9.85787 38.1421Z" fill="currentColor"/>
<path fill-rule="evenodd" clip-rule="evenodd" d="M33.1924 14.8076C32.4113 14.0266 32.4113 12.7602 33.1924 11.9792L35.3137 9.85786C36.0948 9.07681 37.3611 9.07681 38.1421 9.85786C38.9232 10.6389 38.9232 11.9052 38.1421 12.6863L36.0208 14.8076C35.2398 15.5887 33.9734 15.5887 33.1924 14.8076Z" fill="currentColor"/>
<path fill-rule="evenodd" clip-rule="evenodd" d="M38.1421 38.1421C37.3611 38.9232 36.0948 38.9232 35.3137 38.1421L33.1924 36.0208C32.4113 35.2398 32.4113 33.9734 33.1924 33.1924C33.9734 32.4113 35.2398 32.4113 36.0208 33.1924L38.1421 35.3137C38.9232 36.0948 38.9232 37.3611 38.1421 38.1421Z" fill="currentColor"/>
<path fill-rule="evenodd" clip-rule="evenodd" d="M14.8076 14.8076C14.0266 15.5887 12.7602 15.5887 11.9792 14.8076L9.85786 12.6863C9.07682 11.9052 9.07682 10.6389 9.85786 9.85787C10.6389 9.07682 11.9052 9.07682 12.6863 9.85787L14.8076 11.9792C15.5887 12.7602 15.5887 14.0266 14.8076 14.8076Z" fill="currentColor"/>
<path fill-rule="evenodd" clip-rule="evenodd" d="M44 24C44 25.1046 43.1046 26 42 26L39 26C37.8954 26 37 25.1046 37 24C37 22.8954 37.8954 22 39 22L42 22C43.1046 22 44 22.8954 44 24Z" fill="currentColor"/>
<path fill-rule="evenodd" clip-rule="evenodd" d="M11 24C11 25.1046 10.1046 26 9 26H6C4.89543 26 4 25.1046 4 24C4 22.8954 4.89543 22 6 22H9C10.1046 22 11 22.8954 11 24Z" fill="currentColor"/>
</svg>
